<?xml version="1.0" encoding="UTF-8" standalone="no"?>
<!-- Created with Inkscape (http://www.inkscape.org/) -->

<svg
   xmlns:dc="http://purl.org/dc/elements/1.1/"
   xmlns:cc="http://creativecommons.org/ns#"
   xmlns:rdf="http://www.w3.org/1999/02/22-rdf-syntax-ns#"
   xmlns:svg="http://www.w3.org/2000/svg"
   xmlns="http://www.w3.org/2000/svg"
   version="1.1"
   width="600"
   height="600"
   id="svg3066">
  <defs
     id="defs3068" />
  <metadata
     id="metadata3071">
    <rdf:RDF>
      <cc:Work
         rdf:about="">
        <dc:format>image/svg+xml</dc:format>
        <dc:type
           rdf:resource="http://purl.org/dc/dcmitype/StillImage" />
        <dc:title></dc:title>
      </cc:Work>
    </rdf:RDF>
  </metadata>
  <g
     transform="translate(-11.428569,-546.71933)"
     id="layer2"
     style="display:inline" />
  <path
     d="M 128.51661,110.8999 C 73.81683,114.76227 35.750617,176.91232 35.75063,189.17116 17.756795,291.82584 2.5970969,375.97887 0.07137788,398.34068 -1.8604681,468.04483 35.785977,490.43772 68.753915,489.09977 c 7.858949,-0.31905 5.040335,-0.42891 1.561005,-0.44602 78.80324,-3e-5 86.23652,-56.25584 129.3372,-127.99928 57.11096,-0.64507 123.34871,5e-5 200.91868,-1e-5 43.10066,71.74345 50.31096,127.99928 129.11421,127.99928 -3.47947,0.014 -6.29807,0.12702 1.56096,0.44574 32.96803,1.33795 70.6145,-21.05486 68.68265,-90.759 -2.52568,-22.36187 -17.68543,-106.51487 -35.67929,-209.16955 4e-5,-12.65435 -40.57563,-78.2713 -98.11788,-78.27132 -8.23853,-10e-6 2.62805,3e-5 -10.48079,1e-5 -62.20913,3e-5 -91.20505,34.94333 -91.20501,42.59208 -42.94186,-0.38888 -87.87103,-0.014 -128.8913,2e-5 0,-7.64881 -28.99583,-42.59206 -91.20503,-42.59208 -13.10884,-2e-5 -2.24228,4e-5 -10.48076,-7e-5 -1.7982,7e-5 -3.58736,-0.12473 -5.35187,8e-5 z"
     id="path5608"
     style="fill:#000000;stroke:none" />
</svg>
